<?xml version="1.0" encoding="UTF-8" standalone="no"?>
<!-- Created with Inkscape (http://www.inkscape.org/) -->
<svg
   xmlns:dc="http://purl.org/dc/elements/1.1/"
   xmlns:cc="http://web.resource.org/cc/"
   xmlns:rdf="http://www.w3.org/1999/02/22-rdf-syntax-ns#"
   xmlns:svg="http://www.w3.org/2000/svg"
   xmlns="http://www.w3.org/2000/svg"
   xmlns:xlink="http://www.w3.org/1999/xlink"
   xmlns:sodipodi="http://sodipodi.sourceforge.net/DTD/sodipodi-0.dtd"
   xmlns:inkscape="http://www.inkscape.org/namespaces/inkscape"
   width="1052.3622"
   height="744.09448"
   id="svg2"
   sodipodi:version="0.32"
   inkscape:version="0.45.1"
   version="1.0"
   sodipodi:docbase="/home/skore/workspace/AEC dev trunk"
   sodipodi:docname="aec_schema.svg"
   inkscape:output_extension="org.inkscape.output.svg.inkscape">
  <defs
     id="defs4">
    <linearGradient
       y2="221.65714"
       x2="857.55719"
       y1="5.3445606"
       x1="857.55719"
       gradientTransform="matrix(0.879062,0,0,0.879062,-653.8459,3.1727)"
       gradientUnits="userSpaceOnUse"
       id="linearGradient7510"
       xlink:href="#linearGradient5101"
       inkscape:collect="always" />
    <linearGradient
       y2="221.65714"
       x2="857.55719"
       y1="5.3445606"
       x1="857.55719"
       gradientTransform="matrix(0.879062,0,0,0.879062,-473.0286,3.1727)"
       gradientUnits="userSpaceOnUse"
       id="linearGradient7503"
       xlink:href="#linearGradient5101"
       inkscape:collect="always" />
    <linearGradient
       y2="221.65714"
       x2="857.55719"
       y1="5.3445606"
       x1="857.55719"
       gradientTransform="matrix(0.879062,0,0,0.879062,-653.8459,3.1727)"
       gradientUnits="userSpaceOnUse"
       id="linearGradient6890"
       xlink:href="#linearGradient5101"
       inkscape:collect="always" />
    <linearGradient
       id="linearGradient5101">
      <stop
         id="stop5103"
         offset="0"
         style="stop-color:#ff3434;stop-opacity:1;" />
      <stop
         id="stop5105"
         offset="1"
         style="stop-color:#c90000;stop-opacity:1;" />
    </linearGradient>
  </defs>
  <sodipodi:namedview
     id="base"
     pagecolor="#ffffff"
     bordercolor="#666666"
     borderopacity="1.0"
     gridtolerance="10000"
     guidetolerance="10"
     objecttolerance="10"
     inkscape:pageopacity="0.0"
     inkscape:pageshadow="2"
     inkscape:zoom="0.7"
     inkscape:cx="437.16154"
     inkscape:cy="374.18056"
     inkscape:document-units="px"
     inkscape:current-layer="layer1"
     width="1052.3622px"
     height="744.09448px"
     inkscape:connector-spacing="100"
     inkscape:window-width="1024"
     inkscape:window-height="719"
     inkscape:window-x="0"
     inkscape:window-y="25" />
  <metadata
     id="metadata7">
    <rdf:RDF>
      <cc:Work
         rdf:about="">
        <dc:format>image/svg+xml</dc:format>
        <dc:type
           rdf:resource="http://purl.org/dc/dcmitype/StillImage" />
      </cc:Work>
    </rdf:RDF>
  </metadata>
  <g
     inkscape:label="Layer 1"
     inkscape:groupmode="layer"
     id="layer1">
    <path
       sodipodi:type="arc"
       style="opacity:1;fill:#ffffff;fill-opacity:1;stroke:#000000;stroke-width:7;stroke-miterlimit:4;stroke-dasharray:none;stroke-opacity:1"
       id="path2540"
       sodipodi:cx="520"
       sodipodi:cy="376.95163"
       sodipodi:rx="95.714287"
       sodipodi:ry="95.714287"
       d="M 615.71429 376.95163 A 95.714287 95.714287 0 1 1  424.28571,376.95163 A 95.714287 95.714287 0 1 1  615.71429 376.95163 z"
       transform="translate(-82.857143,-4.2857142)" />
    <g
       id="g2534"
       inkscape:label="Layer 1"
       transform="matrix(3.2784295,0,0,3.2784295,365.01745,299.49812)">
      <g
         transform="matrix(0.189197,0,0,0.189197,3.080285,0.371099)"
         id="g7505">
        <path
           style="fill:#000000;fill-opacity:1;fill-rule:evenodd;stroke:none;stroke-width:1px;stroke-linecap:butt;stroke-linejoin:miter;stroke-opacity:1;overflow:visible"
           d="M 100.35485,3.32405 C 16.60767,3.32405 16.37336,48.27308 16.37336,95.96962 C 16.37336,172.57847 -4.97022,179.23627 26.55299,179.23629 C 58.07608,179.23629 74.09277,228.66413 100.35485,228.67585 C 126.61691,228.68758 141.31958,179.26487 172.89862,179.26487 C 204.47768,179.26487 184.39361,172.16763 184.39361,98.48592 C 184.39361,51.3536 185.72708,3.32405 100.35485,3.32405 z M 99.41127,5.58299 C 184.7835,5.58299 182.56359,54.24653 182.56359,98.48592 C 182.56346,143.04852 191.87161,171.74456 173.04164,171.74456 C 139.31811,171.74456 136.43165,203.52459 99.84018,203.51287 C 63.24872,203.50112 53.9407,171.68739 26.6673,171.68739 C 7.75689,171.68739 19.08981,138.40807 19.08981,95.96962 C 19.08981,53.85453 15.66409,5.58299 99.41127,5.58299 z "
           id="path16481" />
        <path
           sodipodi:nodetypes="csssssc"
           style="fill:url(#linearGradient7510);fill-opacity:1;fill-rule:evenodd;stroke:none;stroke-width:1px;stroke-linecap:butt;stroke-linejoin:miter;stroke-opacity:1;overflow:visible"
           d="M 99.15312,7.8709 C 181.17071,7.8709 179.03786,54.62215 179.03786,97.12317 C 179.03786,139.93467 187.98018,167.50311 169.89019,167.50311 C 137.49177,167.50311 134.71872,198.03433 99.56511,198.02306 C 64.41163,198.0118 55.46931,167.44817 29.26755,167.44817 C 11.10029,167.44817 21.98787,135.47658 21.98787,94.70575 C 21.98787,54.24556 18.69671,7.8709 99.15312,7.8709 z "
           id="path17374" />
        <path
           style="font-size:25.3390274px;font-style:normal;font-variant:normal;font-weight:normal;font-stretch:normal;text-align:center;line-height:100%;writing-mode:lr-tb;text-anchor:middle;color:#000000;fill:#ffffff;fill-opacity:1;fill-rule:evenodd;stroke:none;stroke-width:0.99999911;stroke-linecap:round;stroke-linejoin:miter;marker:none;marker-start:none;marker-mid:none;marker-end:none;stroke-miterlimit:4;stroke-dashoffset:0;stroke-opacity:1;visibility:visible;display:inline;overflow:visible;font-family:fff forward"
           d="M 58.17954,89.71975 L 58.17954,100.48835 L 68.93852,100.48835 L 68.93852,89.71975 L 58.17954,89.71975 z M 58.17954,134.07754 L 46.80165,134.07754 L 46.80165,78.33177 L 80.31628,78.33177 L 80.31628,134.07754 L 68.93852,134.07754 L 68.93852,111.87633 L 58.17954,111.87633 L 58.17954,134.07754 z M 113.52161,134.07754 L 85.54105,134.07754 L 85.54105,78.33177 L 113.52161,78.33177 L 113.52161,89.71975 L 96.91894,89.71975 L 96.91894,100.48835 L 113.52161,100.48835 L 113.52161,111.87633 L 96.91894,111.87633 L 96.91894,122.64493 L 113.52161,122.64493 L 113.52161,134.07754 z M 118.75285,134.07754 L 118.74636,78.29966 L 152.261,78.33835 L 152.261,100.79803 L 140.88324,100.79803 L 140.88324,89.71975 L 130.12427,89.71975 L 130.12427,122.64493 L 140.88324,122.64493 L 140.88324,111.56665 L 152.261,111.56665 L 152.25452,134.07754 L 118.75285,134.07754 z "
           id="path16483"
           sodipodi:nodetypes="cccccccccccccccccccccccccccccccccccccccc" />
      </g>
    </g>
    <path
       transform="matrix(0.7527273,0,0,0.7527273,256.15542,248.05757)"
       d="M 615.71429 376.95163 A 95.714287 95.714287 0 1 1  424.28571,376.95163 A 95.714287 95.714287 0 1 1  615.71429 376.95163 z"
       sodipodi:ry="95.714287"
       sodipodi:rx="95.714287"
       sodipodi:cy="376.95163"
       sodipodi:cx="520"
       id="path3511"
       style="opacity:1;fill:#ffffff;fill-opacity:1;stroke:#000000;stroke-width:6.64251184;stroke-miterlimit:4;stroke-dasharray:none;stroke-opacity:1"
       sodipodi:type="arc" />
    <text
       xml:space="preserve"
       style="font-size:35.05335236px;font-style:normal;font-variant:normal;font-weight:normal;font-stretch:normal;text-align:center;line-height:125%;writing-mode:lr-tb;text-anchor:middle;fill:#000000;fill-opacity:1;stroke:none;stroke-width:1px;stroke-linecap:butt;stroke-linejoin:miter;stroke-opacity:1;font-family:MgOpen Cosmetica"
       x="649.79474"
       y="547.58105"
       id="text3513"
       sodipodi:linespacing="125%"><tspan
         sodipodi:role="line"
         id="tspan3515"
         x="649.79474"
         y="547.58105">Zeasel</tspan></text>
    <path
       sodipodi:type="arc"
       style="opacity:1;fill:#ffffff;fill-opacity:1;stroke:#000000;stroke-width:6.64251184;stroke-miterlimit:4;stroke-dasharray:none;stroke-opacity:1"
       id="path3517"
       sodipodi:cx="520"
       sodipodi:cy="376.95163"
       sodipodi:rx="95.714287"
       sodipodi:ry="95.714287"
       d="M 615.71429 376.95163 A 95.714287 95.714287 0 1 1  424.28571,376.95163 A 95.714287 95.714287 0 1 1  615.71429 376.95163 z"
       transform="matrix(0.7527273,0,0,0.7527273,-10.495401,314.63843)" />
    <text
       id="text3519"
       y="606.97968"
       x="381.23273"
       style="font-size:22.87802696px;font-style:normal;font-variant:normal;font-weight:normal;font-stretch:normal;text-align:center;line-height:125%;writing-mode:lr-tb;text-anchor:middle;fill:#000000;fill-opacity:1;stroke:none;stroke-width:1px;stroke-linecap:butt;stroke-linejoin:miter;stroke-opacity:1;font-family:MgOpen Cosmetica"
       xml:space="preserve"
       sodipodi:linespacing="125%"><tspan
         y="606.97968"
         x="381.23273"
         id="tspan3521"
         sodipodi:role="line">Mammontini</tspan></text>
    <path
       sodipodi:type="arc"
       style="opacity:1;fill:#ffffff;fill-opacity:1;stroke:#000000;stroke-width:6.64251184;stroke-miterlimit:4;stroke-dasharray:none;stroke-opacity:1"
       id="path5461"
       sodipodi:cx="520"
       sodipodi:cy="376.95163"
       sodipodi:rx="95.714287"
       sodipodi:ry="95.714287"
       d="M 615.71429 376.95163 A 95.714287 95.714287 0 1 1  424.28571,376.95163 A 95.714287 95.714287 0 1 1  615.71429 376.95163 z"
       transform="matrix(0.2985461,-0.1723657,0.1723657,0.2985461,496.5516,633.79285)"
       inkscape:transform-center-y="119.85002"
       inkscape:transform-center-x="-69.195488" />
    <path
       style="fill:none;fill-rule:evenodd;stroke:#000000;stroke-width:7;stroke-linecap:square;stroke-linejoin:miter;stroke-opacity:1;stroke-miterlimit:4;stroke-dasharray:none"
       d="M 412.43094,471.8802 L 399.49062,523.83346"
       id="path5473"
       inkscape:connector-type="polyline"
       inkscape:connection-start="#path2540"
       inkscape:connection-end="#path3517" />
    <path
       style="fill:none;fill-rule:evenodd;stroke:#000000;stroke-width:7;stroke-linecap:square;stroke-linejoin:miter;stroke-opacity:1;stroke-miterlimit:4;stroke-dasharray:none"
       d="M 514.13378,431.53201 L 590.19945,487.54691"
       id="path8392"
       inkscape:connector-type="polyline"
       inkscape:connection-start="#path2540"
       inkscape:connection-end="#path3511"
       sodipodi:nodetypes="cc" />
    <path
       inkscape:transform-center-x="-119.85008"
       inkscape:transform-center-y="69.195445"
       transform="matrix(0.1723657,-0.2985461,0.2985461,0.1723657,565.25609,696.31599)"
       d="M 615.71429 376.95163 A 95.714287 95.714287 0 1 1  424.28571,376.95163 A 95.714287 95.714287 0 1 1  615.71429 376.95163 z"
       sodipodi:ry="95.714287"
       sodipodi:rx="95.714287"
       sodipodi:cy="376.95163"
       sodipodi:cx="520"
       id="path9363"
       style="opacity:1;fill:#ffffff;fill-opacity:1;stroke:#000000;stroke-width:6.64251184;stroke-miterlimit:4;stroke-dasharray:none;stroke-opacity:1"
       sodipodi:type="arc" />
    <path
       sodipodi:type="arc"
       style="opacity:1;fill:#ffffff;fill-opacity:1;stroke:#000000;stroke-width:6.64251184;stroke-miterlimit:4;stroke-dasharray:none;stroke-opacity:1"
       id="path9365"
       sodipodi:cx="520"
       sodipodi:cy="376.95163"
       sodipodi:rx="95.714287"
       sodipodi:ry="95.714287"
       d="M 615.71429 376.95163 A 95.714287 95.714287 0 1 1  424.28571,376.95163 A 95.714287 95.714287 0 1 1  615.71429 376.95163 z"
       transform="matrix(2.4941087e-8,-0.3447314,0.3447314,2.4941087e-8,656.01749,716.11037)"
       inkscape:transform-center-y="-5.3107227e-05"
       inkscape:transform-center-x="-138.39095" />
    <path
       style="fill:none;fill-rule:evenodd;stroke:#000000;stroke-width:1px;stroke-linecap:butt;stroke-linejoin:miter;stroke-opacity:1"
       d="M 681.72993,595.63182 L 700.22177,626.8315"
       id="path9367"
       inkscape:connector-type="polyline"
       inkscape:connection-start="#path3511"
       inkscape:connection-end="#path5461"
       sodipodi:nodetypes="cc" />
    <path
       style="fill:none;fill-rule:evenodd;stroke:#000000;stroke-width:1px;stroke-linecap:butt;stroke-linejoin:miter;stroke-opacity:1"
       d="M 709.62037,569.40906 L 738.38688,588.05747"
       id="path9369"
       inkscape:connector-type="polyline"
       inkscape:connection-start="#path3511"
       inkscape:connection-end="#path9363"
       sodipodi:nodetypes="cc" />
    <path
       style="fill:none;fill-rule:evenodd;stroke:#000000;stroke-width:1px;stroke-linecap:butt;stroke-linejoin:miter;stroke-opacity:1"
       d="M 722.12037,534.52 L 751.8239,535.60406"
       id="path9371"
       inkscape:connector-type="polyline"
       inkscape:connection-start="#path3511"
       inkscape:connection-end="#path9365" />
    <path
       style="fill:none;fill-rule:evenodd;stroke:#000000;stroke-width:5;stroke-linecap:square;stroke-linejoin:miter;stroke-opacity:1;stroke-miterlimit:4;stroke-dasharray:none"
       d="M 455.46955,579.7664 L 573.02686,550.41316"
       id="path9373"
       inkscape:connector-type="polyline"
       inkscape:connection-start="#path3517"
       inkscape:connection-end="#path3511" />
    <text
       xml:space="preserve"
       style="font-size:23.49087715px;font-style:normal;font-variant:normal;font-weight:normal;font-stretch:normal;text-align:center;line-height:125%;writing-mode:lr-tb;text-anchor:middle;fill:#000000;fill-opacity:1;stroke:none;stroke-width:1px;stroke-linecap:butt;stroke-linejoin:miter;stroke-opacity:1;font-family:MgOpen Cosmetica"
       x="866.51978"
       y="636.67047"
       id="text10362"
       sodipodi:linespacing="125%"><tspan
         sodipodi:role="line"
         id="tspan10364"
         x="866.51977"
         y="636.67047">Payment</tspan><tspan
         sodipodi:role="line"
         x="866.51977"
         y="666.03407"
         id="tspan10366">Processors</tspan></text>
    <text
       xml:space="preserve"
       style="font-size:21.10562515px;font-style:normal;font-weight:normal;fill:#000000;fill-opacity:1;stroke:none;stroke-width:1px;stroke-linecap:butt;stroke-linejoin:miter;stroke-opacity:1;font-family:MgOpen Cosmetica"
       x="279.23489"
       y="692.54755"
       id="text10368"><tspan
         sodipodi:role="line"
         id="tspan10370"
         x="279.23489"
         y="692.54755">Transactions &amp; Actions</tspan></text>
    <text
       id="text10372"
       y="623.97614"
       x="591.95123"
       style="font-size:21.10562515px;font-style:normal;font-weight:normal;fill:#000000;fill-opacity:1;stroke:none;stroke-width:1px;stroke-linecap:butt;stroke-linejoin:miter;stroke-opacity:1;font-family:MgOpen Cosmetica"
       xml:space="preserve"><tspan
         y="623.97614"
         x="591.95123"
         id="tspan10374"
         sodipodi:role="line">Transactions</tspan></text>
  </g>
</svg>
